<?xml version="1.0" encoding="utf-8"?>
<!-- Generator: Adobe Illustrator 26.5.0, SVG Export Plug-In . SVG Version: 6.00 Build 0)  -->
<svg version="1.1" id="Layer_1" xmlns="http://www.w3.org/2000/svg" xmlns:xlink="http://www.w3.org/1999/xlink" x="0px" y="0px"
	 viewBox="0 0 340 66" style="enable-background:new 0 0 340 66;" xml:space="preserve">
<style type="text/css">
	.st0{fill-rule:evenodd;clip-rule:evenodd;fill:#231F20;}
	.st1{fill:#231F20;}
	.st2{fill:none;}
	.st3{fill:#0BA24B;}
	.st4{fill:#1B87C6;}
	.st5{fill:#8EC441;}
	.st6{fill:none;stroke:#FFFFFF;stroke-width:0;stroke-linecap:round;stroke-linejoin:round;}
	.st7{fill:#FFFFFF;}
</style>
<g>
	<path class="st0" d="M136.4,51.3c0.1,0.2,0.4,0.2,0.7,0.2c0.3,0,0.5-0.1,0.7-0.2c0.1-0.1,0.1-0.1,0.1-0.2c-0.1,0-0.2,0-0.2-0.1
		l-0.1-0.1l0-0.1c0.1-0.4,0.1-0.6-0.1-0.8c-0.1-0.1-0.4-0.2-0.7-0.2c-0.2,0-0.4,0.1-0.6,0.2c-0.2,0.1-0.3,0.2-0.5,0.2l-0.3,0.1v-2.3
		c0-0.2,0-0.5,0-0.8c0-0.5,0-0.9,0-1.2c-0.1-0.3-0.3-0.4-0.7-0.4c-0.3,0-0.7,0.1-0.9,0.2l0,0.1h-0.9l0.6-0.4
		c0.1-0.1,0.3-0.3,0.6-0.4c0.2-0.1,0.4-0.2,0.5-0.3c0-0.1,0.1-0.1,0-0.2c0,0-0.2-0.1-0.7-0.1c-0.1,0-0.1,0-0.2,0l-0.2,0l0-0.2
		c-0.1-0.2-0.1-0.5-0.1-0.8c0-0.6,0-0.9-0.4-1c-0.1,0-0.2,0-0.3,0c-0.3,0-0.6,0.1-0.9,0.2c-0.1,0-0.3,0.1-0.4,0.1v0.1
		c0.2,0,0.3,0.1,0.4,0.1c0.2,0.2,0.2,0.6,0.2,0.9c0,0.2,0,0.3,0,0.4c0,0.2,0.1,0.3,0.5,0.3c0.1,0,0.3,0,0.6-0.1l0.6-0.1l-0.3,0.4
		c-0.2,0.2-0.4,0.5-0.6,0.7l-0.2,0.2l-0.2-0.2c-0.1-0.1-0.2-0.1-0.4-0.1c-0.3,0-0.6,0.1-1,0.2c-0.2,0.1-0.3,0.1-0.5,0.1v0.1
		c0.2,0,0.3,0.1,0.4,0.2c0.2,0.2,0.2,0.5,0.2,0.8c0,0.1,0,0.2,0,0.3v1c0,0.2,0,0.4,0,0.6c0,0.7-0.1,1.4,0.3,1.7
		c0.1,0.1,0.4,0.2,0.7,0.2h0c0.5,0,0.8-0.2,1.1-0.6c0,0-0.1,0-0.1,0c-0.1,0-0.2,0.1-0.3,0.1c0,0-0.1,0-0.1,0l-0.2,0l0-0.2
		c0-0.3,0-0.8,0-1.2c0-0.5,0-1,0-1.4c0-0.2,0.1-0.4,0.1-0.5c0.2-0.3,0.6-0.5,0.9-0.5c0.3,0,0.6,0.2,0.6,0.5c0.1,0.3,0,0.7,0,1
		c0,0.2,0,0.4,0,0.6c0,0.2,0,0.4,0,0.6c0,0.4,0,0.7,0,1c0,0.3,0.2,0.4,0.5,0.5c0.1,0,0.1,0.1,0.2,0.1c0,0,0.1,0,0.1,0
		c0.6,0,0.9-0.2,1.2-0.4l0.6-0.3l-0.2,0.6C136.3,51,136.3,51.1,136.4,51.3z"/>
	<path class="st0" d="M142.4,47.3c0.5,0,0.9-0.1,1.1-0.2c0,0,0,0,0,0c-0.1,0-0.2,0-0.2,0l-0.1,0l0,0c-0.1-0.1-0.2-0.3-0.3-0.4
		c-0.1-0.1-0.1-0.3-0.3-0.4c-0.1-0.1-0.3-0.1-0.6-0.1c-0.4,0-0.9,0.2-1.2,0.3l-0.3,0.2l-0.1-0.3c-0.1-0.3,0-0.6,0-0.9
		c0-0.4,0.1-0.9-0.1-1c-0.1,0-0.1,0-0.3,0c-0.1,0-0.2,0-0.4,0l-0.2,0l0-0.2c0-0.1,0-0.2,0-0.3c0-0.3,0-0.6-0.1-0.7
		c-0.1-0.1-0.2-0.1-0.3-0.1c-0.3,0-0.7,0.1-1,0.3c-0.2,0.1-0.4,0.1-0.5,0.2v0.1c0.2,0,0.3,0,0.5,0.1l0.1,0l0,0.1
		c0.1,0.2,0,0.4,0,0.5c0,0.2,0,0.3,0,0.4c0,0,0.1,0,0.2,0h0c0.1,0,0.3,0,0.4,0l0.2,0v2l-0.4-0.3c-0.3-0.2-0.8-0.4-1.2-0.4
		c-0.2,0-0.4,0-0.5,0.1c-0.1,0.1-0.2,0.2-0.2,0.3c-0.1,0.2-0.2,0.4-0.4,0.5l-0.1,0.1l-0.1,0c0,0,0,0-0.1,0c0,0,0,0,0,0
		c0.3,0.2,0.7,0.2,1,0.2c0.2,0,0.4,0,0.5-0.1c0.1,0,0.2-0.2,0.2-0.2c0.2-0.2,0.4-0.5,0.7-0.5c0.3,0,0.6,0.3,0.6,0.4
		c0.1,0.2,0,0.4,0,0.6c0,0.1,0,0.2,0,0.3v0.8c0,0.2,0,0.4,0,0.5c0,0.7,0,1.3,0.3,1.6c0.1,0.1,0.4,0.2,0.7,0.2h0
		c0.6,0,0.9-0.2,1.2-0.6c-0.1,0-0.2,0-0.4,0l-0.3,0.1v-2.7c0-0.1,0-0.2,0-0.2c0-0.5,0-0.9,0.6-1.1l0.1,0l0.1,0.1
		c0.2,0.1,0.3,0.3,0.5,0.4C142,47.1,142.1,47.2,142.4,47.3z"/>
	<path class="st0" d="M149,45.8c0,0.4,0.5,0.6,1,0.6c0.3,0,0.6-0.1,0.8-0.2v0c-0.3,0-0.3-0.2-0.3-0.2c0-0.2,0-0.4,0-0.5
		c0-0.2,0-0.3,0-0.4c-0.1-0.1-0.2-0.3-0.6-0.3c-0.4,0-0.9,0.1-1.3,0.2l-0.4,0.1l0.1-0.3c0.1-0.3,0-0.6-0.2-0.8
		c-0.2-0.2-0.5-0.3-1-0.3c-0.5,0-1.1,0.1-1.4,0.4l-0.3,0.2l-0.1-0.2c-0.1-0.2-0.3-0.2-0.5-0.2c-0.4,0-0.9,0.2-1.3,0.3
		c0,0-0.1,0-0.1,0v0.1c0.2,0,0.3,0,0.4,0.1l0.1,0.1l0,0.1c0.1,0.5,0.1,1,0.1,1.5c0,0.4,0,0.8,0,1.2c0,0.2,0.2,0.4,0.3,0.5
		c0.2,0.2,0.3,0.4,0.4,0.6c0.1,0.4,0,0.7,0,1.1c0,0.3,0,0.6,0,0.9c0.1,0.4,0.4,0.7,0.8,0.7c0.1,0,0.1,0,0.1,0c0.6,0,0.9-0.2,1.2-0.6
		c-0.1,0-0.2,0-0.3,0l-0.3,0.1l0-0.3c0-0.3,0-0.5,0-0.8c0-0.7,0-1.4-0.3-1.7l-0.2-0.2l0.2-0.1c0,0,0,0,0.1-0.1
		c0.2-0.1,0.5-0.4,0.9-0.3c0.2,0,0.3,0.1,0.4,0.1c0.1,0,0.2,0.1,0.3,0.1c0.5,0,1-0.1,1.4-0.5c0,0-0.1,0-0.1,0
		c-0.1,0-0.2,0.1-0.3,0.1c0,0-0.1,0-0.1,0l-0.2,0l0-0.3c0-0.4-0.1-0.9,0-1.2l0-0.1l0.1,0c0.2-0.1,0.4,0,0.5,0.1
		C149.1,45.3,149,45.5,149,45.8C149,45.7,149,45.7,149,45.8z M146.9,46.5v0.1l-0.2,0c-0.2,0.1-0.4,0.2-0.6,0.3
		c-0.1,0.1-0.2,0.1-0.3,0.2l-0.5,0.3l0.1-0.5c0-0.2,0-0.5,0-0.9c-0.1-0.7-0.1-1.4,0.3-1.8c0.1-0.1,0.3-0.2,0.6-0.2
		c0.1,0,0.3,0,0.4,0.1l0.2,0l0,0.1c0,0.4,0,0.9,0,1.3C146.8,45.9,146.8,46.2,146.9,46.5z"/>
	<path class="st0" d="M184.8,47.4c0,0-0.1,0-0.1,0c-0.1,0-0.2,0.1-0.3,0.1l0,0c-0.1,0-0.1,0-0.2,0l-0.2,0l0-0.1c0-0.5,0-1,0-1.5
		c0-0.5,0-1,0-1.5c0-0.2-0.1-0.4-0.6-0.4c-0.5,0-1.2,0.2-1.5,0.4l-0.3,0.2l-0.1-0.3c-0.1-0.1-0.2-0.3-0.7-0.3
		c-0.6,0-1.3,0.2-1.8,0.4l-0.3,0.1l-0.1-0.2c-0.1-0.2-0.3-0.3-0.6-0.3c-0.4,0-0.9,0.1-1.5,0.4l-0.3,0.1l-0.1-0.2
		c-0.1-0.1-0.2-0.3-0.6-0.3c-0.5,0-1,0.2-1.4,0.4v0.1c0.1,0,0.3,0.1,0.4,0.1c0.3,0.2,0.2,0.7,0.2,1.1c0,0.1,0,0.2,0,0.3
		c0,0.2,0,0.3,0,0.5c0,0.3,0,0.6,0,0.8c0.1,0.4,0.4,0.7,1,0.7c0.1,0,0.3,0,0.4,0l0.5-0.1l-0.2,0.3c-0.2,0.3-0.5,0.6-0.8,0.9
		c-0.3,0.3-0.6,0.7-0.8,1c-0.1,0.3-0.1,0.5,0.1,0.7c0.2,0.2,0.5,0.3,0.8,0.3c0.6,0,0.9-0.3,1.2-0.6c-0.1,0-0.1,0-0.1,0c0,0,0,0,0,0
		l-0.6,0.2l0.3-0.4c0.3-0.4,0.6-0.8,1-1.2c0.1-0.1,0.1-0.2,0.2-0.3c0.1-0.1,0.2-0.2,0.3-0.3c0.3-0.4,0.7-0.7,0.7-1.2
		c0-0.4,0-0.8,0-1.2c0-0.4,0-0.9,0-1.4l0-0.1l0.1,0c0.1,0,0.3-0.1,0.6-0.1c0.3,0,0.5,0.1,0.6,0.2l0,0v0c0.1,0.4,0,0.9,0,1.4
		c0,0.4,0,0.8,0,1.1c0.1,0.6,0.8,0.7,1.1,0.7c0.5,0,1-0.2,1.2-0.4l0.3-0.4l0.1,0.5c0.1,0.3,0.5,0.4,0.8,0.4c0.2,0,0.4,0,0.6-0.1
		c0,0,0.1-0.1,0.1-0.1C184.5,47.7,184.7,47.5,184.8,47.4z M177.3,47c-0.1,0.3-0.5,0.5-0.8,0.5l-0.3,0l0-0.2c0-0.8,0-1.8,0-2.6l0-0.1
		l0.1-0.1c0.1-0.1,0.3-0.1,0.4-0.1c0.1,0,0.2,0,0.3,0.1c0.2,0.2,0.2,0.6,0.2,1c0,0.1,0,0.1,0,0.2c0,0.1,0,0.3,0,0.4
		C177.4,46.5,177.4,46.8,177.3,47z M182.7,47c-0.1,0.3-0.6,0.4-0.8,0.5l-0.3,0.1l0-0.2c0-0.8,0-1.7,0-2.5l0-0.1l0.1-0.1
		c0.1-0.1,0.3-0.1,0.4-0.1c0.1,0,0.2,0,0.3,0.1c0.2,0.2,0.2,0.6,0.2,0.9c0,0.1,0,0.1,0,0.2c0,0.1,0,0.3,0,0.4
		C182.7,46.4,182.7,46.8,182.7,47z"/>
	<path class="st0" d="M155.9,48.5c0,0.2,0,0.4,0,0.6c0,0.4,0,0.8,0,1c0,0.5,0.5,0.7,1,0.7c0.3,0,0.7-0.1,0.9-0.3l0.3-0.2l0.2,0.3
		c0.1,0.2,0.4,0.3,0.8,0.3c0.3,0,0.6-0.1,0.7-0.2v0c-0.2,0-0.2-0.1-0.3-0.2l0,0l0,0c0-0.1,0.1-0.2,0.1-0.4c0.1-0.2,0.1-0.5,0.1-0.7
		c-0.1-0.4-0.7-0.6-1.2-0.6c-0.3,0-0.6,0-0.9,0.1l-0.3,0.1v-2.2l0.1-0.1c0,0,0,0,0.1-0.1c0.1-0.1,0.2-0.2,0.5-0.3l0.1,0l0.1,0
		c0.2,0.1,0.3,0.3,0.3,0.4c0,0.1,0.1,0.1,0.1,0.2c0.2,0.2,0.6,0.3,0.8,0.3c0.3,0,0.7-0.1,1-0.2c0,0,0,0,0,0
		c-0.4-0.1-0.6-0.4-0.7-0.6c-0.1-0.1-0.1-0.3-0.2-0.4c-0.1-0.1-0.3-0.2-0.5-0.2c-0.4,0-0.9,0.2-1.3,0.4l-0.3,0.1l0-0.3
		c0-0.3,0-0.6,0-1c0-0.5,0.1-1.1-0.2-1.3c-0.1,0-0.1-0.1-0.3-0.1c-0.3,0-0.6,0.1-0.9,0.2c-0.2,0.1-0.4,0.1-0.6,0.2v0.1
		c0.2,0,0.4,0.1,0.5,0.2l0,0l0,0c0,0.3,0,0.7,0,1c0,0.2,0,0.4,0,0.6l0,0.4l-0.5-0.2c-0.4-0.2-0.8-0.4-1.2-0.4c0,0-0.1,0-0.1,0
		c-0.3,0-0.4,0.2-0.6,0.5c-0.1,0.2-0.2,0.4-0.5,0.6l0,0l0,0c0,0-0.1,0-0.2,0c0,0,0,0,0,0c0.3,0.1,0.6,0.2,0.9,0.2c0.1,0,0.1,0,0.2,0
		c0.3,0,0.5-0.2,0.7-0.4c0.1-0.1,0.3-0.3,0.5-0.4l0.2-0.1l0.1,0.1c0,0,0.1,0,0.1,0.1c0.1,0.1,0.3,0.2,0.3,0.3c0.1,0.2,0.1,0.6,0,1.1
		C155.9,48.1,155.9,48.3,155.9,48.5z M157.4,49.3c0.2-0.1,0.4-0.2,0.6-0.2l0.1,0l0.1,0c0.3,0.2,0.3,0.8,0.1,1l0,0.1l-0.1,0
		c-0.1,0-0.2,0-0.3,0c0,0,0,0-0.1,0h-0.2l-0.1-0.1c-0.2-0.2-0.2-0.4-0.2-0.6c0-0.1,0-0.1,0-0.2L157.4,49.3L157.4,49.3z"/>
	<path class="st0" d="M168.1,50.8c0,0,0.1-0.1,0.1-0.1c-0.1,0-0.2-0.1-0.2-0.2l0,0v0c0-0.1,0-0.3,0-0.4c0.1-0.4,0.1-0.7-0.1-1
		c-0.2-0.2-0.6-0.3-1-0.3c-0.3,0-0.6,0-0.8,0.1l-0.3,0.1l0-0.3c0-0.5,0-0.9,0-1.4c0-0.5,0-0.9,0-1.4c0-0.5-0.4-0.9-0.8-1.3
		c-0.2-0.2-0.5-0.5-0.7-0.7l-0.1-0.2l0.3-0.1c0,0,0,0,0-0.1c-0.1,0-0.2,0-0.3,0c-0.6,0-1.2,0-1.4,0.2c-0.2,0.1-0.1,0.3,0.3,0.7
		c0.2,0.2,0.3,0.3,0.4,0.5l0.1,0.2l-0.3,0c-0.2,0-0.4,0.1-0.5,0.2l-0.2,0.1l-0.1-0.1c-0.2-0.1-0.4-0.2-0.6-0.2
		c-0.4,0-0.9,0.2-1.1,0.4c0,0,0,0,0.1,0.1c0.1,0,0.1,0,0.2,0c0.1,0,0.1,0,0.2,0.1l0.1,0.1v2.3c0,0.3,0,0.5,0,0.8c0,0.5,0,1,0,1.4
		c0.1,0.5,0.5,0.6,0.9,0.6h0c0.6,0,0.9-0.2,1.2-0.6c0,0,0,0-0.1,0c-0.1,0-0.2,0.1-0.3,0.1c0,0-0.1,0-0.1,0l-0.2,0l0-0.2
		c0-0.8,0-1.7,0-2.6c0-0.5,0-1,0-1.6v0l0,0c0.2-0.3,0.5-0.5,0.9-0.6l0.1,0l0.1,0.1c0.6,0.5,0.6,1.4,0.6,2.4c0,0.2,0,0.4,0,0.6
		c0,0.2,0,0.5,0,0.7c0,0.4,0,0.9,0,1.1c0.1,0.4,0.6,0.6,1.1,0.6c0.4,0,0.8-0.1,1-0.3l0.3-0.2l0.2,0.3c0.1,0.1,0.4,0.3,0.8,0.3
		C167.8,51,168,50.9,168.1,50.8z M166.7,49.9c-0.1,0.3-0.3,0.5-0.6,0.5l0,0c-0.1,0-0.2,0-0.2,0l-0.1,0l0-0.1c-0.1-0.2-0.2-0.6,0-0.9
		c0.1-0.2,0.4-0.3,0.7-0.1C166.7,49.3,166.8,49.6,166.7,49.9z"/>
	<path class="st0" d="M172.3,47.6c0,0.1,0,0.3,0,0.4c0,0.3,0,0.5,0,0.7c0.1,0.5,0.5,0.7,1,0.7c0.2,0,0.4,0,0.6-0.1
		c0.2-0.1,0.4-0.2,0.5-0.4c0,0-0.1,0-0.1,0c-0.1,0-0.1,0.1-0.3,0.1c-0.1,0-0.1,0-0.1,0l-0.2,0l0-0.1c-0.1-0.4,0-0.9,0-1.3
		c0-0.5,0.1-0.9,0-1.3c0,0,0-0.1,0-0.1c-0.1-0.3-0.5-0.5-1.1-0.5c-0.5,0-1,0.1-1.5,0.2c-0.2,0-0.3,0.1-0.4,0.1l-0.3,0l0-0.2
		c0-0.2,0-0.4,0-0.6c0-0.5,0-1-0.2-1.2c0,0-0.1-0.1-0.3-0.1h0c-0.3,0-0.6,0.1-0.9,0.2c-0.2,0.1-0.4,0.1-0.6,0.2v0
		c0.2,0,0.3,0.1,0.4,0.1c0.2,0.2,0.2,0.6,0.2,0.9c0,0.3,0,0.6,0.1,0.7c0.1,0,0.2,0,0.4,0.1c0.1,0,0.2,0,0.3,0l0.5,0l-0.3,0.3
		c-0.1,0.1-0.2,0.1-0.3,0.2c-0.1,0.1-0.2,0.1-0.3,0.2c-0.3,0.3-0.3,1-0.2,1.6c0,0.2,0,0.3,0,0.5c0,0.2,0,0.4,0,0.5
		c0,0.5,0,1,0.1,1.2c0.2,0.3,0.5,0.4,0.8,0.4c0.5,0,1-0.2,1.3-0.5c0,0-0.1,0-0.1,0c-0.1,0-0.2,0.1-0.3,0.1c0,0-0.1,0-0.1,0l-0.2,0
		l0-0.2c0.1-0.5,0-1,0-1.6c0-0.6-0.1-1.3,0-1.9c0-0.3,0.4-0.6,0.7-0.6c0.1,0,0.2,0,0.3,0c0.4,0,0.7,0.1,0.8,0.3
		c0.1,0.2,0.1,0.5,0.1,0.9C172.3,47.4,172.3,47.5,172.3,47.6z"/>
	<path class="st1" d="M135.9,23.7c3.7,0,5.1,2.3,5.1,7c0,0.7,0,1.5-0.1,2.3H134c0.1,2.1,0.9,3.2,2.5,3.2c1.6,0,2.5-0.5,3.1-0.5
		c0.7,0,1,0.7,1,2.7c-1,0.6-2.6,1.1-4.9,1.1c-4.4,0-6-3.4-6-8C129.7,27.1,131.6,23.7,135.9,23.7z M135.7,26.9
		c-0.7,0-1.2,0.4-1.3,0.4c-0.1,0.3-0.5,1.5-0.5,3.3l3.3-0.2C137.4,28.2,136.9,26.9,135.7,26.9z"/>
	<path class="st1" d="M142.3,24.3h1.9v-1.5c0-1.6,1-2.3,3.9-2.1v3.6h2.9v3.1h-2.9V35c0,1,0.4,1.3,1.2,1.3c0.6,0,1.2-0.2,1.5-0.3
		l0.3,2.6c-0.6,0.4-2,0.8-3.5,0.8c-2.4,0-3.6-1.3-3.6-3.9v-8.3h-1.7V24.3z"/>
	<path class="st1" d="M152.9,19.3c0,0,1.1-0.4,2.1-0.4c1.8,0,2,0.4,2,2.2l0,4.2c0.8-0.8,2.2-1.6,3.9-1.6c2.5,0,3.6,1.5,3.6,4.2v11.3
		h-4.1V28.8c0-1-0.4-1.5-1.3-1.5c-0.9,0-1.7,0.4-2.1,0.9v11.1h-4.1V19.3z"/>
	<path class="st1" d="M170,18.3c1.3,0,1.9,0.7,1.9,2c0,1.2-0.8,2-2.7,2c-1.4,0-1.9-0.9-1.9-2.1C167.3,19.1,168,18.3,170,18.3z
		 M167.5,39.2V24.3c0.5-0.2,1.4-0.4,2.2-0.4c1.6,0,1.9,0.5,1.9,2.1v13.2H167.5z"/>
	<path class="st1" d="M186.1,31.7c0,4.8-1.9,7.8-6.7,7.8c-3.6,0-5.6-3.3-5.6-8c0-3.2,0.8-7.8,6.6-7.8
		C184.5,23.7,186.1,26.7,186.1,31.7z M180,36.3c0.5,0,1-0.1,1.4-0.4c0.1-0.2,0.6-1.8,0.6-4.4c0-3.4-0.5-4.7-1.9-4.7
		c-0.5,0-1,0.1-1.4,0.3c-0.2,0.5-0.7,1.8-0.7,4.3C178,35,178.7,36.3,180,36.3z"/>
	<path class="st1" d="M190.9,24.3h1.9v-1.5c0-1.6,1-2.3,3.9-2.1v3.6h2.9v3.1h-2.9V35c0,1,0.4,1.3,1.2,1.3c0.6,0,1.2-0.2,1.5-0.3
		l0.3,2.6c-0.6,0.4-2,0.8-3.5,0.8c-2.4,0-3.6-1.3-3.6-3.9v-8.3h-1.7V24.3z"/>
	<path class="st1" d="M207,23.7c3.7,0,5.1,2.3,5.1,7c0,0.7,0,1.5-0.1,2.3h-6.9c0.1,2.1,0.9,3.2,2.5,3.2c1.6,0,2.5-0.5,3.1-0.5
		c0.7,0,1,0.7,1,2.7c-1,0.6-2.6,1.1-4.9,1.1c-4.4,0-6-3.4-6-8C200.8,27.1,202.8,23.7,207,23.7z M206.9,26.9c-0.7,0-1.2,0.4-1.3,0.4
		c-0.1,0.3-0.5,1.5-0.5,3.3l3.3-0.2C208.5,28.2,208.1,26.9,206.9,26.9z"/>
	<path class="st1" d="M214.5,19.3c0.5-0.2,1.5-0.4,2.2-0.4c1.6,0,2,0.5,2,2.2v14c0,0.8,0.4,1.2,1.1,1.2c0.5,0,0.9-0.1,1.1-0.2
		l0.2,2.7c-0.8,0.4-1.9,0.7-3.1,0.7c-2.1,0-3.5-1.1-3.5-3.8V19.3z"/>
	<path class="st1" d="M228.1,23.7c3.7,0,5.1,2.3,5.1,7c0,0.7,0,1.5-0.1,2.3h-6.9c0.1,2.1,0.9,3.2,2.5,3.2c1.6,0,2.5-0.5,3.1-0.5
		c0.7,0,1,0.7,1,2.7c-1,0.6-2.6,1.1-4.9,1.1c-4.4,0-6-3.4-6-8C221.9,27.1,223.8,23.7,228.1,23.7z M227.9,26.9
		c-0.7,0-1.2,0.4-1.3,0.4c-0.1,0.3-0.5,1.5-0.5,3.3l3.3-0.2C229.6,28.2,229.1,26.9,227.9,26.9z"/>
	<path class="st1" d="M241,23.7c2.1,0,3.3,0.7,3.5,0.9c0,2-0.5,3.1-1.2,3.1c-0.5,0-1.2-0.5-2.2-0.5c-0.4,0-0.8,0.1-1.1,0.2
		c-0.2,0.3-0.8,1.8-0.8,4.3c0,3.1,1,4.5,2.6,4.5c0.9,0,1.7-0.3,2.3-0.6l0.5,2.7c-0.8,0.5-1.9,1.2-3.9,1.2c-3.7,0-5.8-2.8-5.8-7.8
		C234.9,26.7,237,23.7,241,23.7z"/>
	<path class="st1" d="M257.9,31.7c0,4.8-1.9,7.8-6.7,7.8c-3.6,0-5.6-3.3-5.6-8c0-3.2,0.8-7.8,6.6-7.8
		C256.3,23.7,257.9,26.7,257.9,31.7z M251.8,36.3c0.5,0,1-0.1,1.4-0.4c0.1-0.2,0.6-1.8,0.6-4.4c0-3.4-0.5-4.7-1.9-4.7
		c-0.5,0-1,0.1-1.4,0.3c-0.2,0.5-0.7,1.8-0.7,4.3C249.7,35,250.4,36.3,251.8,36.3z"/>
	<path class="st1" d="M260.2,24.1c0.5-0.2,1.4-0.4,2-0.4c1.1,0,1.5,0.2,2,1.7c0.4-0.4,2.1-1.7,4.2-1.7c2.1,0,2.7,1.2,2.9,1.8
		c0.5-0.5,2.5-1.8,4.4-1.8c2.9,0,3.3,1.8,3.3,5v10.6h-4.1V29.1c0-1.3-0.1-1.9-1.2-1.9c-0.7,0-1.8,0.6-2.1,0.8v11.2h-4.1V29.1
		c0-1.3-0.1-1.9-1.1-1.9c-0.8,0-2.1,0.8-2.1,0.8v11.2h-4.1V24.1z"/>
	<path class="st1" d="M281.7,24.1h-0.8v-0.4h2.2v0.4h-0.8V27h-0.5V24.1z"/>
	<path class="st1" d="M283.8,23.7h0.7l0.5,1.9c0.2,0.6,0.2,1.1,0.2,1.1h0c0,0,0.1-0.4,0.2-1.1l0.5-1.9h0.7l0.3,3.3h-0.5l-0.2-1.9
		c-0.1-0.6-0.1-1-0.1-1h0c0,0-0.1,0.4-0.2,1l-0.5,1.9H285l-0.5-1.9c-0.2-0.6-0.2-1-0.2-1h0c0,0,0,0.4-0.1,1L284,27h-0.5L283.8,23.7z
		"/>
	<g>
		<path class="st2" d="M56.9,45.9c0,0.1,0.1,0.1,0.1,0.2C56.9,46,56.9,45.9,56.9,45.9z"/>
		<path class="st2" d="M56,43.5C56,43.5,56,43.5,56,43.5C56,43.5,56,43.5,56,43.5z"/>
		<path class="st2" d="M59.7,50.7c0.1,0.1,0.1,0.2,0.2,0.2C59.8,50.8,59.7,50.8,59.7,50.7z"/>
		<path class="st2" d="M55.7,42.4c0,0.1,0,0.2,0.1,0.3C55.7,42.6,55.7,42.5,55.7,42.4z"/>
		<path class="st2" d="M58.1,48.3c0,0.1,0.1,0.1,0.1,0.2C58.2,48.5,58.2,48.4,58.1,48.3z"/>
		<path class="st2" d="M58.6,49.1c0.1,0.1,0.1,0.2,0.2,0.3C58.7,49.3,58.6,49.2,58.6,49.1z"/>
		<path class="st2" d="M57.1,46.4c0.1,0.2,0.2,0.3,0.2,0.5C57.3,46.8,57.2,46.6,57.1,46.4z"/>
		<path class="st2" d="M55.5,41.4c0,0.1,0,0.3,0.1,0.4C55.5,41.7,55.5,41.5,55.5,41.4z"/>
		<path class="st2" d="M56.1,44c0,0.1,0.1,0.3,0.1,0.4C56.2,44.3,56.2,44.1,56.1,44z"/>
		<path class="st2" d="M57.4,27.8c-0.2,0.4-0.4,0.8-0.5,1.1C57,28.6,57.2,28.2,57.4,27.8z"/>
		<path class="st2" d="M55.3,40.4c0,0.2,0,0.3,0.1,0.5C55.3,40.7,55.3,40.6,55.3,40.4z"/>
		<path class="st2" d="M56,31.4c-0.3,1-0.5,2.1-0.7,3.1C55.4,33.5,55.7,32.5,56,31.4z"/>
		<path class="st2" d="M58.2,26.2c-0.3,0.5-0.6,1-0.8,1.6C57.7,27.2,57.9,26.7,58.2,26.2z"/>
		<path class="st2" d="M56.9,29c-0.2,0.5-0.4,1.1-0.6,1.6C56.4,30,56.6,29.5,56.9,29z"/>
		<path class="st2" d="M55.2,39.6c0,0.1,0,0.2,0,0.4C55.2,39.9,55.2,39.8,55.2,39.6z"/>
		<path class="st2" d="M55.3,34.7c0,0.3-0.1,0.5-0.1,0.8C55.2,35.2,55.2,34.9,55.3,34.7z"/>
		<path class="st2" d="M55.1,37.4c0,0.6,0,1.1,0.1,1.7C55.1,38.5,55.1,38,55.1,37.4z"/>
		<path class="st2" d="M60.1,51.3c0.1,0.1,0.2,0.3,0.3,0.4C60.3,51.5,60.2,51.4,60.1,51.3z"/>
		<path class="st2" d="M59.3,24.5C59.3,24.5,59.3,24.5,59.3,24.5c0.2-0.4,0.5-0.7,0.7-1.1C59.7,23.8,59.5,24.2,59.3,24.5z"/>
		<path class="st2" d="M60.7,52c0.1,0.1,0.2,0.3,0.3,0.4C61,52.3,60.9,52.2,60.7,52z"/>
		<path class="st2" d="M63.7,55.1c0.1,0.1,0.1,0.1,0.2,0.2C63.9,55.2,63.8,55.1,63.7,55.1z"/>
		<path class="st2" d="M62.5,53.9c-0.1-0.1-0.1-0.1-0.2-0.2C62.3,53.8,62.4,53.8,62.5,53.9z"/>
		<path class="st2" d="M62.8,54.2c0.1,0.1,0.3,0.2,0.4,0.4C63.1,54.5,62.9,54.3,62.8,54.2z"/>
		<path class="st2" d="M55.1,37.3c0-0.5,0-1.1,0.1-1.6C55.1,36.2,55.1,36.7,55.1,37.3z"/>
		<path class="st3" d="M92,39.3c2.2,0.7,4.1,1.1,7.1,1.4c9.6,1,23.5-3.9,24.1-16.6C121.6,32.3,111.3,43.4,92,39.3z"/>
		<path class="st4" d="M67.9,57.8c10.3,5.3,29.5,7.2,42.6-2.6c1.1-0.9,1.5-2.1,1.1-3.1c-0.1-0.2-0.3-0.5-0.5-0.7
			c-0.7-0.6-1.8-0.8-3.4-0.3C93,55.9,76.3,50.6,78.6,39.4c0.2-1,0.6-2.1,1-2.9c-1.7,0-3.4,0.1-5.4,0.5c-2,0.4-3.6,1-4.9,1.8
			c-1.8,1-3.2,2.2-4.2,3.5c-0.4,0.5-0.7,1-1,1.5c0,0,0,0,0,0c0,0,0,0,0,0c-1.2,2.1-1.5,4.4-1.3,6.5c0,0,0,0,0,0c0,0,0,0,0,0
			c0.2,2.2,1.1,4.2,2.3,5.7c0.1,0.1,0.1,0.2,0.2,0.3C66.1,56.8,66.9,57.3,67.9,57.8"/>
		<path class="st5" d="M117.5,11.2c0,0-0.1-0.1-0.1-0.1c-1.8-0.8-3.7-1.4-5.8-2C86.6,6,67.8,13.9,59.3,24.5c0,0,0,0,0,0v0
			c0,0,0,0,0,0c-0.4,0.5-0.7,1.1-1,1.7c-0.3,0.5-0.6,1-0.8,1.6c0,0,0,0,0,0.1c-0.2,0.4-0.4,0.8-0.5,1.1c-0.2,0.5-0.4,1.1-0.6,1.6
			c-0.1,0.3-0.2,0.6-0.3,0.9c-0.3,1-0.5,2.1-0.7,3.1c0,0,0,0.1,0,0.1c0,0.3-0.1,0.5-0.1,0.8c0,0.1,0,0.1,0,0.2
			c0,0.5-0.1,1.1-0.1,1.6c0,0,0,0.1,0,0.1c0,0.6,0,1.1,0.1,1.7c0,0.2,0,0.4,0.1,0.5c0,0.1,0,0.2,0,0.4c0,0.1,0,0.3,0.1,0.4
			c0,0.2,0,0.3,0.1,0.5c0,0.2,0.1,0.3,0.1,0.5c0,0.1,0,0.3,0.1,0.4c0,0.2,0.1,0.4,0.1,0.6c0,0.1,0,0.2,0.1,0.3
			c0.1,0.3,0.1,0.5,0.2,0.8c0,0,0,0.1,0,0.1c0,0.2,0.1,0.3,0.2,0.5c0,0.1,0.1,0.3,0.1,0.4c0.2,0.5,0.4,1,0.6,1.5
			c0,0.1,0.1,0.1,0.1,0.2c0.1,0.1,0.1,0.2,0.2,0.3c0.1,0.2,0.2,0.3,0.2,0.5c0.2,0.5,0.5,1,0.8,1.4c0,0.1,0.1,0.1,0.1,0.2
			c0.1,0.2,0.2,0.3,0.3,0.5c0.1,0.1,0.1,0.2,0.2,0.3c0.3,0.4,0.6,0.9,0.9,1.3c0.1,0.1,0.1,0.2,0.2,0.2c0.1,0.1,0.2,0.2,0.3,0.3
			c0.1,0.1,0.2,0.3,0.3,0.4c0.1,0.1,0.2,0.2,0.3,0.3c0.1,0.1,0.2,0.3,0.3,0.4c0.4,0.4,0.8,0.9,1.2,1.3c0.1,0.1,0.1,0.1,0.2,0.2
			c0.1,0.1,0.2,0.2,0.3,0.3c0.1,0.1,0.3,0.2,0.4,0.4c0.2,0.2,0.4,0.3,0.5,0.5c0.1,0.1,0.1,0.1,0.2,0.2c0.2,0.2,0.4,0.3,0.6,0.5
			c0.1,0.1,0.1,0.1,0.2,0.2c0.2,0.1,0.4,0.3,0.6,0.4c-0.1-0.1-0.1-0.2-0.2-0.3c-1.2-1.5-2.1-3.5-2.3-5.7c0,0,0,0,0,0c0,0,0,0,0,0
			c-0.2-2.1,0.1-4.4,1.3-6.5c0,0,0,0,0,0c0,0,0,0,0,0c0.3-0.5,0.6-1,1-1.5c1-1.3,2.4-2.5,4.2-3.5c1.3-0.8,3-1.4,4.9-1.8
			c1.9-0.4,3.7-0.6,5.4-0.5c4.6,0.1,8.3,1.6,12.4,2.8c0,0,0,0,0,0c19.3,4.1,29.6-7,31.2-15.1v0C123.6,19.5,121.7,14.7,117.5,11.2z"
			/>
		<polygon class="st3" points="64.7,55.9 64.7,55.9 64.7,55.9 		"/>
		<path class="st3" d="M63.7,55.1c-0.2-0.2-0.4-0.3-0.5-0.5c-0.1-0.1-0.3-0.2-0.4-0.4c-0.1-0.1-0.2-0.2-0.3-0.3
			c-0.1-0.1-0.1-0.1-0.2-0.2c-0.4-0.4-0.8-0.8-1.2-1.3c-0.1-0.1-0.2-0.3-0.3-0.4c-0.1-0.1-0.2-0.2-0.3-0.3c-0.1-0.1-0.2-0.3-0.3-0.4
			c-0.1-0.1-0.2-0.2-0.3-0.3c-0.1-0.1-0.1-0.2-0.2-0.2c-0.3-0.4-0.6-0.9-0.9-1.3c-0.1-0.1-0.1-0.2-0.2-0.3c-0.1-0.2-0.2-0.3-0.3-0.5
			c0-0.1-0.1-0.1-0.1-0.2c-0.3-0.5-0.5-0.9-0.8-1.4c-0.1-0.2-0.2-0.3-0.2-0.5c-0.1-0.1-0.1-0.2-0.2-0.3c0-0.1-0.1-0.1-0.1-0.2
			c-0.2-0.5-0.4-1-0.6-1.5c0-0.1-0.1-0.3-0.1-0.4c-0.1-0.2-0.1-0.3-0.2-0.5c0,0,0-0.1,0-0.1c-0.1-0.3-0.2-0.5-0.2-0.8
			c0-0.1,0-0.2-0.1-0.3c0-0.2-0.1-0.4-0.1-0.6c0-0.1,0-0.3-0.1-0.4c0-0.2-0.1-0.3-0.1-0.5c0-0.2,0-0.3-0.1-0.5c0-0.1,0-0.3-0.1-0.4
			c0-0.1,0-0.2,0-0.4c0-0.2,0-0.4-0.1-0.5c0-0.6-0.1-1.1-0.1-1.7c0,0,0-0.1,0-0.1c0-0.5,0-1.1,0.1-1.6c0-0.1,0-0.1,0-0.2
			c0-0.3,0.1-0.5,0.1-0.8c0,0,0-0.1,0-0.1c0.1-1,0.4-2.1,0.7-3.1c0.1-0.3,0.2-0.6,0.3-0.9c0.2-0.5,0.4-1.1,0.6-1.6
			c0.2-0.4,0.3-0.8,0.5-1.1c0,0,0,0,0-0.1c0.3-0.5,0.5-1,0.8-1.6c0.3-0.6,0.7-1.1,1-1.7c0,0,0,0,0,0l0,0v0v0c0,0,0,0,0,0
			c0.2-0.4,0.5-0.7,0.7-1.1C69.8,9.1,90.8,3.5,111,8.9c0.2,0.1,0.5,0.1,0.7,0.2c2,0.6,4,1.2,5.8,2c-6.9-5.8-17-8-28.8-7.1
			c-22,1.8-37.9,16.8-35.5,33.6c0.5,3.5,1.8,6.8,3.7,9.8c1.7,2.7,3.8,5.1,6.3,7.2c0.5,0.4,1.1,0.9,1.6,1.2l0,0l0,0
			c-0.1-0.1-0.1-0.1-0.2-0.2c-0.2-0.2-0.4-0.3-0.6-0.5C63.9,55.2,63.8,55.1,63.7,55.1z"/>
		<line class="st6" x1="59.3" y1="24.5" x2="59.3" y2="24.5"/>
		<path class="st7" d="M60,23.5c-0.2,0.3-0.5,0.7-0.7,1.1C67.8,13.9,86.6,6,111.7,9.1c-0.2-0.1-0.5-0.1-0.7-0.2
			C90.8,3.5,69.8,9.1,60,23.5z"/>
		<polygon class="st7" points="59.3,24.5 59.3,24.5 59.3,24.5 59.3,24.5 59.3,24.5 		"/>
	</g>
</g>
<text transform="matrix(1 0 0 1 226.9936 -296.9488)" style="font-family:'MyriadPro-Regular'; font-size:95.776px;">340x66px</text>
</svg>
